<?xml version="1.0" standalone="no"?><!DOCTYPE svg PUBLIC "-//W3C//DTD SVG 1.1//EN" "http://www.w3.org/Graphics/SVG/1.1/DTD/svg11.dtd"><svg t="1748752651565" class="icon" viewBox="0 0 1024 1024" version="1.1" xmlns="http://www.w3.org/2000/svg" p-id="15345" xmlns:xlink="http://www.w3.org/1999/xlink" width="64" height="64"><path d="M767.9 1023.9H256c-141.4 0-256-114.6-256-256V256C0 114.6 114.6 0 256 0h511.9c141.4 0 256 114.6 256 256v511.9c0 141.4-114.6 256-256 256z" fill="#FFFFFF" p-id="15346"></path><path d="M767.9 64c105.9 0 192 86.1 192 192v511.9c0 105.9-86.1 192-192 192H256c-105.9 0-192-86.1-192-192V256c0-105.9 86.1-192 192-192h511.9m0-64H256C114.6 0 0 114.6 0 256v511.9c0 141.4 114.6 256 256 256h511.9c141.4 0 256-114.6 256-256V256c0-141.4-114.6-256-256-256z" fill="#40B2FE" p-id="15347"></path><path d="M754.5 487.7c-51.2-51.2-130.6-87-202.2-102.4 61.4 61.4 128 194.6 143.4 481.3 0-2.6 2.6-2.6 2.6-5.1 12.8-12.8 33.3-33.3 56.3-48.6 15.4-10.2 51.2-17.9 76.8-12.8 25.6 5.1 35.8 7.7 35.8-15.4 5-107.6-28.3-217.7-112.7-297z m0 0M431.9 659.2c-43.5 2.6-89.6 66.6-92.2 166.4h56.3c43.5 0 81.9 5.1 117.8 10.2v-10.2c0-87-38.4-169-81.9-166.4z m0 0" fill="#40B2FE" p-id="15348"></path><path d="M593.2 149.8c-5.1-2.6-28.2-7.7-38.4-5.1-15.4 5.1-48.6 48.6-58.9 92.2-10.2 41-10.2 138.2-10.2 138.2-99.8 0-186.9 51.2-248.3 138.2-58.9 87-76.8 207.4-81.9 304.6 0 23 43.5 10.2 66.6 10.2 28.2-2.6 56.3-2.6 87-2.6 0-115.2 56.3-197.1 120.3-194.6 69.1 2.6 112.6 84.5 112.6 197.1v15.4l92.2 23c15.4 5.1 28.2 10.2 35.8 12.8-7.7-202.2-53.8-419.8-153.6-494.1-7.7-33.3-5.1-64-2.6-92.2 84.5 30.7 176.6 23 192-17.9 23.1-58.7-87-109.9-112.6-125.2zM675.1 265c-5.1 15.4-33.3 23-66.6 20.5-38.4-2.6-84.5-17.9-87-20.5-2.6-7.7 5.1-28.2 12.8-48.6 7.7-17.9 20.5-35.8 30.7-35.8 12.8-2.7 120.3 48.5 110.1 84.4z m0 0" fill="#40B2FE" p-id="15349"></path></svg>